<?xml version="1.0" encoding="UTF-8" standalone="no"?><!-- Generator: Gravit.io --><svg xmlns="http://www.w3.org/2000/svg" xmlns:xlink="http://www.w3.org/1999/xlink" style="isolation:isolate" viewBox="0 0 1024 768" width="1024pt" height="768pt"><defs><clipPath id="_clipPath_89UPdmC1qZyNkjykAMWhXDpsMBeOSLXp"><rect width="1024" height="768"/></clipPath></defs><g clip-path="url(#_clipPath_89UPdmC1qZyNkjykAMWhXDpsMBeOSLXp)"><g><g opacity="0.1"><path d=" M 527.528 188.276 C 466.771 198.838 406.1 194.31 347.736 187.725 C 289.372 181.139 231.152 172.539 170.371 175.131 C 131.271 176.795 87.728 184.765 60.427 207.928 C 34.148 230.207 30.053 260.271 30.002 287.411 C 29.934 307.824 31.653 328.947 45.717 345.21 C 55.489 356.49 70.532 364.573 81.862 374.985 C 121.285 411.154 109.299 468.103 83.429 516.523 C 71.289 539.24 56.443 561.581 48.177 584.832 C 39.911 608.083 38.813 632.998 53.608 651.958 C 68.267 670.76 96.624 681.356 126.189 686.847 C 186.238 698.004 253.141 691.077 317.873 681.689 C 461.136 660.838 602.918 628.33 744.393 595.901 C 796.739 583.895 849.314 571.836 899.744 554.531 C 927.752 544.898 956.27 532.909 974.359 514.246 C 997.344 490.601 997.923 458.26 975.773 438.932 C 938.605 406.53 854.481 413.72 825.733 376.676 C 809.916 356.279 816.803 328.58 829.394 304.111 C 856.388 251.637 908.564 199.792 901.804 147.475 C 897.139 111.57 861.547 81.856 813.841 74.114 C 763.836 66.005 699.615 81.383 670.825 117.516 C 641.226 154.744 581.176 178.923 527.528 188.276 Z " fill="rgb(108,99,255)"/></g><rect x="336.431" y="386.624" width="241.28" height="57.475" transform="matrix(1,0,0,1,0,0)" fill="rgb(86,86,97)"/><g opacity="0.1"><rect x="336.431" y="386.624" width="241.28" height="57.475" transform="matrix(1,0,0,1,0,0)" fill="rgb(0,0,0)"/></g><path d=" M 365.298 445.991 L 366.992 599.43 L 343.786 659.699 L 341.99 445.991 L 365.298 445.991 L 365.298 445.991 Z " fill="rgb(188,190,201)"/><path d=" M 338.976 397.658 L 573.889 399.112 L 573.889 441.919 L 338.976 441.919 L 338.976 397.658 L 338.976 397.658 Z " fill="rgb(86,86,97)"/><path d=" M 553.79 445.991 L 573.889 448.907 L 573.889 657.37 L 553.79 593.607 L 553.79 445.991 L 553.79 445.991 Z " fill="rgb(188,190,201)"/><rect x="581.525" y="388.927" width="113.213" height="247.486" transform="matrix(1,0,0,1,0,0)" fill="rgb(239,239,240)"/><rect x="590.583" y="395.802" width="95.097" height="190.238" transform="matrix(1,0,0,1,0,0)" fill="rgb(86,86,97)"/><g opacity="0.1"><rect x="590.583" y="395.802" width="95.097" height="190.238" transform="matrix(1,0,0,1,0,0)" fill="rgb(0,0,0)"/></g><rect x="590.583" y="399.699" width="95.097" height="42.22" transform="matrix(1,0,0,1,0,0)" fill="rgb(86,86,97)"/><rect x="590.583" y="445.991" width="95.097" height="89.676" transform="matrix(1,0,0,1,0,0)" fill="rgb(86,86,97)"/><rect x="590.583" y="541.202" width="95.097" height="89.676" transform="matrix(1,0,0,1,0,0)" fill="rgb(86,86,97)"/><g opacity="0.1"><rect x="590.583" y="541.202" width="95.097" height="89.676" transform="matrix(1,0,0,1,0,0)" fill="rgb(0,0,0)"/></g><ellipse vector-effect="non-scaling-stroke" cx="594.5495203313349" cy="644.4698817589797" rx="6.129262514862717" ry="8.05686086625144" fill="rgb(86,86,97)"/><ellipse vector-effect="non-scaling-stroke" cx="679.5504734020359" cy="644.8552098873657" rx="6.129262514862717" ry="8.05686086625144" fill="rgb(86,86,97)"/><path d=" M 335.58 659.699 L 343.786 659.699 L 341.53 391.073 L 329.067 391.073 L 335.58 659.699 L 335.58 659.699 Z " fill="rgb(239,239,240)"/><path d=" M 573.889 388.927 L 573.889 657.37 L 581.525 657.37 L 581.525 391.073 L 573.889 388.927 L 573.889 388.927 Z " fill="rgb(239,239,240)"/><path d=" M 341.93 439.291 L 341.93 448.907 L 573.889 448.907 L 573.889 441.919 L 341.93 439.291 L 341.93 439.291 Z " fill="rgb(239,239,240)"/><path d=" M 357.654 370.878 L 651.722 370.878 L 694.456 385.433 L 694.456 393.875 L 327.654 390.968 L 327.654 382.377 L 357.654 370.878 L 357.654 370.878 Z " fill="rgb(255,255,255)"/><path d=" M 327.654 382.377 L 694.456 385.433 L 694.456 393.875 L 327.654 390.968 L 327.654 382.377 L 327.654 382.377 Z " fill="rgb(188,190,201)"/><linearGradient id="_lgradient_0" x1="-0.030172413793081887" y1="0.5025641025640653" x2="0.9698275862069181" y2="0.5025641025640653" gradientTransform="matrix(1.975,0,0,1.708,359.007,480.784)" gradientUnits="userSpaceOnUse"><stop offset="0%" stop-opacity="0.25" style="stop-color:rgb(128,128,128)"/><stop offset="54%" stop-opacity="0.12" style="stop-color:rgb(128,128,128)"/><stop offset="100%" stop-opacity="0.1" style="stop-color:rgb(128,128,128)"/></linearGradient><path d=" M 360.88 482.492 L 359.177 482.229 C 359.177 482.15 359.177 482.08 359.177 482.01 C 359.126 481.599 359.067 481.196 359.007 480.784 C 359.705 481.353 360.369 481.923 360.982 482.492 L 360.88 482.492 Z " fill="url(#_lgradient_0)"/><path d=" M 323.883 617.716 C 324.99 617.453 326.113 617.234 327.237 617.077 C 334.955 615.946 342.825 617.138 349.898 620.509 C 349.183 625.922 348.477 631.518 349.992 636.746 C 351.048 640.424 353.167 643.752 353.618 647.588 C 355.937 647.998 357.832 649.72 358.513 652.036 C 358.84 653.041 359.004 654.094 358.999 655.154 C 358.989 656.465 358.829 657.77 358.522 659.042 C 358.307 661.156 356.495 662.709 354.436 662.545 C 347.847 663.316 341.385 660.645 335.256 658.026 L 323.338 652.93 C 321.942 652.334 320.537 651.73 319.201 650.994 C 316.666 649.585 314.415 647.692 312.569 645.416 C 312.179 645.009 311.905 644.5 311.778 643.944 C 311.556 642.403 313.31 641.484 314.425 640.441 C 314.752 640.124 315.038 639.765 315.276 639.373 C 316.596 637.324 316.724 634.495 317.515 632.078 C 319.388 626.342 325.177 622.646 327.22 617.05 C 327.331 616.744 327.433 616.437 327.518 616.122" fill="rgb(162,101,101)"/><g opacity="0.1"><path d=" M 358.999 655.154 C 358.989 656.465 358.829 657.77 358.522 659.042 C 358.307 661.156 356.495 662.709 354.436 662.545 C 347.847 663.316 341.385 660.645 335.256 658.026 L 323.338 652.93 C 321.942 652.334 320.537 651.73 319.201 650.994 C 316.666 649.585 314.415 647.692 312.569 645.416 C 312.179 645.009 311.905 644.5 311.778 643.944 C 311.556 642.403 313.31 641.484 314.425 640.441 C 314.752 640.124 315.038 639.765 315.276 639.373 C 318.562 640.1 322.64 642.228 325.151 643.051 C 327.667 643.756 330.082 644.795 332.336 646.143 C 335.469 648.209 337.725 651.397 340.381 654.024 C 343.037 656.652 346.468 659.042 350.171 658.718 C 352.129 658.415 354.016 657.744 355.738 656.739 L 358.999 655.154 Z " fill="rgb(0,0,0)"/></g><path d=" M 345.046 530.702 C 345.499 532.329 344.922 534.075 343.599 535.08 C 342.484 535.79 341.045 535.694 339.938 536.464 C 338.568 537.454 338.372 539.415 338.134 541.114 C 337.282 546.956 334.464 552.254 332.055 557.622 C 329.646 562.99 327.612 568.849 328.497 574.682 C 329.101 578.64 330.991 582.861 329.221 586.425 C 328.786 587.301 328.139 588.081 327.646 588.93 C 325.22 593.099 326.599 598.379 326.505 603.231 C 326.54 603.77 326.425 604.308 326.173 604.781 C 325.801 605.229 325.343 605.592 324.828 605.849 C 323.077 607.174 322.008 609.247 321.925 611.481 C 321.853 613.686 322.112 615.889 322.691 618.014 C 322.785 618.871 323.153 619.672 323.738 620.291 C 324.416 620.751 325.216 620.984 326.028 620.956 C 331.376 621.402 336.623 622.714 341.573 624.844 C 344.799 626.228 347.932 627.962 351.363 628.628 C 352.033 628.842 352.76 628.763 353.372 628.409 C 353.803 628.008 354.101 627.478 354.223 626.894 C 355.542 622.427 356.879 617.821 356.428 613.179 C 356.232 611.183 355.713 609.23 355.576 607.233 C 354.98 599.351 360.165 592.24 361.808 584.464 C 362.548 580.961 362.548 577.335 363.076 573.797 C 364.506 564.103 369.699 555.407 371.7 545.817 C 371.978 544.03 372.411 542.271 372.994 540.563 C 374.483 536.849 377.931 533.837 378.008 529.817 C 378.055 528.933 377.829 528.056 377.361 527.313 C 376.558 526.406 375.492 525.792 374.322 525.561 C 369.697 524.252 364.989 523.275 360.233 522.636 C 358.053 522.196 355.828 522.037 353.61 522.163 C 350.729 522.512 347.961 523.517 345.506 525.106 C 342.22 527.19 344.331 527.689 345.046 530.702 Z " fill="rgb(69,75,105)"/><g opacity="0.05"><path d=" M 345.046 530.702 C 345.499 532.329 344.922 534.075 343.599 535.08 C 342.484 535.79 341.045 535.694 339.938 536.464 C 338.568 537.454 338.372 539.415 338.134 541.114 C 337.282 546.956 334.464 552.254 332.055 557.622 C 329.646 562.99 327.612 568.849 328.497 574.682 C 329.101 578.64 330.991 582.861 329.221 586.425 C 328.786 587.301 328.139 588.081 327.646 588.93 C 325.22 593.099 326.599 598.379 326.505 603.231 C 326.54 603.77 326.425 604.308 326.173 604.781 C 325.801 605.229 325.343 605.592 324.828 605.849 C 323.077 607.174 322.008 609.247 321.925 611.481 C 321.853 613.686 322.112 615.889 322.691 618.014 C 322.785 618.871 323.153 619.672 323.738 620.291 C 324.416 620.751 325.216 620.984 326.028 620.956 C 331.376 621.402 336.623 622.714 341.573 624.844 C 344.799 626.228 347.932 627.962 351.363 628.628 C 352.033 628.842 352.76 628.763 353.372 628.409 C 353.803 628.008 354.101 627.478 354.223 626.894 C 355.542 622.427 356.879 617.821 356.428 613.179 C 356.232 611.183 355.713 609.23 355.576 607.233 C 354.98 599.351 360.165 592.24 361.808 584.464 C 362.548 580.961 362.548 577.335 363.076 573.797 C 364.506 564.103 369.699 555.407 371.7 545.817 C 371.978 544.03 372.411 542.271 372.994 540.563 C 374.483 536.849 377.931 533.837 378.008 529.817 C 378.055 528.933 377.829 528.056 377.361 527.313 C 376.558 526.406 375.492 525.792 374.322 525.561 C 369.697 524.252 364.989 523.275 360.233 522.636 C 358.053 522.196 355.828 522.037 353.61 522.163 C 350.729 522.512 347.961 523.517 345.506 525.106 C 342.22 527.19 344.331 527.689 345.046 530.702 Z " fill="rgb(0,0,0)"/></g><path d=" M 328.386 662.685 L 321.125 662.685 L 316.375 562.29 L 316.043 556.58 L 322.214 554.347 L 322.632 560.416 L 328.386 662.685 L 328.386 662.685 Z " fill="rgb(86,86,97)"/><g opacity="0.1"><path d=" M 322.632 560.416 L 316.375 562.29 L 316.043 556.58 L 322.214 554.347 L 322.632 560.416 L 322.632 560.416 Z " fill="rgb(0,0,0)"/></g><path d=" M 419.499 683.922 L 407.522 685.411 L 352.341 556.58 L 337.461 555.459 L 311.327 563.306 L 306.244 716.693 L 294.267 716.693 L 298.983 557.701 L 270.303 558.454 L 219.124 689.518 L 208.236 689.518 L 262.063 536.342 L 264.14 530.439 L 344.356 527.61 L 364.353 539.144 L 364.609 539.81 L 419.499 683.922 L 419.499 683.922 Z " fill="rgb(86,86,97)"/><g opacity="0.1"><path d=" M 364.609 539.81 C 347.37 545.152 329.476 550.984 329.476 550.984 C 329.476 550.984 313.157 556.843 306.244 550.984 C 305.373 550.284 304.399 549.732 303.358 549.346 C 304.255 550.006 305.224 550.555 306.244 550.984 L 262.063 536.333 L 264.131 530.439 L 344.356 527.61 L 364.353 539.144 L 364.609 539.81 Z " fill="rgb(0,0,0)"/></g><path d=" M 283.013 514.387 L 315.677 506.916 C 315.677 506.916 393.723 521.857 399.528 527.829 C 399.528 527.829 337.095 540.895 330.2 545.344 C 323.304 549.793 282.281 554.715 283.013 514.387 Z " fill="rgb(255,255,255)"/><path d=" M 268.967 430.411 C 266.413 438.74 259.441 446.245 250.953 446.604 C 250.336 446.678 249.711 446.562 249.157 446.271 C 248.093 445.588 248.067 443.985 248.502 442.768 C 248.936 441.551 249.693 440.456 249.813 439.178 C 249.838 438.917 249.821 438.653 249.761 438.398 C 249.54 437.356 248.714 436.428 247.744 436.647 C 249.113 435.52 249.426 433.507 248.468 431.996 C 248.082 431.549 247.735 431.068 247.429 430.56 C 246.722 429.071 247.821 427.399 248.28 425.805 C 249.225 422.302 246.825 418.799 246.629 415.147 C 246.458 411.881 248.067 408.807 248.468 405.566 C 249.106 400.312 246.569 395.276 246.271 390.031 C 246.067 386.37 246.944 382.745 247.923 379.215 C 248.774 376.063 249.736 372.875 249.796 369.582 C 249.796 367.191 249.395 364.827 249.285 362.445 C 249.108 360.267 249.493 358.08 250.4 356.104 C 250.989 354.943 251.993 354.061 253.201 353.643 C 255.993 352.68 257.823 354.178 258.232 356.901 C 258.913 361.534 258.521 366.263 259.415 370.913 C 260.242 375.262 261.494 379.513 263.152 383.603 C 264.659 387.298 266.489 390.871 267.647 394.698 C 268.519 397.853 269.142 401.074 269.511 404.332 C 270.652 413.08 271.546 422.083 268.967 430.411 Z " fill="rgb(108,99,255)"/><path d=" M 462.856 642.377 C 460.677 645.535 457.292 647.587 453.551 648.017 C 449.856 648.49 446.017 647.535 442.433 648.577 C 441.306 648.768 440.347 649.528 439.879 650.6 C 439.791 651.312 439.737 652.028 439.718 652.746 C 439.3 655.084 436.312 655.609 433.988 655.592 L 424.403 655.531 C 422.411 655.531 420.206 655.417 418.776 653.998 C 417.369 652.395 417.333 649.97 418.691 648.323 C 418.988 647.961 419.353 647.663 419.763 647.447 C 418.543 647.032 417.654 645.945 417.465 644.636 C 417.291 643.349 417.351 642.039 417.644 640.774 C 417.644 637.114 418.495 630.983 420.998 628.12 C 424.071 624.555 429.4 619.949 434.039 618.994 C 437.216 618.368 440.494 619.326 442.876 621.578 C 445.072 623.68 446.673 626.972 449.686 627.34 C 451.329 627.55 452.912 626.754 454.538 626.465 C 458.325 625.963 462.009 627.965 463.741 631.465 C 464.153 632.331 464.44 633.255 464.592 634.206 C 465.042 637.058 464.421 639.979 462.856 642.377 Z " fill="rgb(162,101,101)"/><g opacity="0.1"><path d=" M 462.856 642.377 C 460.677 645.535 457.292 647.587 453.551 648.017 C 449.856 648.49 446.017 647.535 442.433 648.577 C 441.306 648.768 440.347 649.528 439.879 650.6 C 439.791 651.312 439.737 652.028 439.718 652.746 C 439.3 655.084 436.312 655.609 433.988 655.592 L 424.403 655.531 C 422.411 655.531 420.206 655.417 418.776 653.998 C 417.369 652.395 417.333 649.97 418.691 648.323 C 424.224 648.087 429.664 648.323 435.18 647.15 C 437.419 646.686 439.624 646.072 441.888 645.748 C 446.792 645.03 452.01 645.643 456.513 643.507 C 460.268 641.755 462.958 638.191 464.55 634.215 C 465.01 637.058 464.404 639.975 462.856 642.377 Z " fill="rgb(0,0,0)"/></g><path d=" M 437.564 628.531 C 434.159 631.246 430.166 633.365 425.876 633.593 C 421.585 633.821 417.031 631.842 414.928 628.006 C 411.855 622.375 414.579 614.546 410.816 609.379 C 409.642 607.759 407.948 606.611 406.705 605.044 C 405.462 603.476 404.747 601.12 405.853 599.457 C 404.517 599.982 403.104 598.651 402.712 597.232 C 402.321 595.813 402.567 594.29 402.329 592.853 C 401.708 589.044 398.073 586.601 396.327 583.22 C 394.582 579.84 394.821 575.452 394.625 571.45 C 394.19 561.699 390.661 552.364 384.58 544.871 C 383.422 543.453 381.941 542.008 380.136 542.078 C 380.451 538.872 378.374 535.807 375.684 534.196 C 372.994 532.585 369.793 532.042 366.677 531.726 C 335.239 528.539 302.482 540.563 272.465 530.448 C 264.114 527.637 256.061 522.934 250.953 515.56 C 246.934 509.891 245.31 502.792 246.45 495.873 L 246.45 495.751 C 247.633 489.533 250.826 488 256.112 485.163 C 262.215 481.844 268.594 479.092 275.172 476.94 C 287.942 472.832 301.69 471.352 314.868 474.365 C 321.023 475.784 326.956 478.131 333.119 479.506 C 335.546 480.049 337.989 480.434 340.449 480.758 C 344.271 481.248 348.111 481.572 351.958 482.028 C 364.262 483.485 376.379 486.289 388.104 490.391 C 392.471 491.915 396.838 493.658 400.592 496.416 C 406.591 500.898 410.59 507.668 411.693 515.21 C 412.051 517.785 412.059 520.464 412.604 522.96 C 413.12 525.058 413.804 527.108 414.647 529.09 C 421.921 547.592 427.865 566.617 432.431 586.014 C 432.689 587.455 433.169 588.844 433.852 590.13 C 434.942 591.943 436.815 593.16 437.913 594.973 C 440.467 599.246 438.006 605.21 440.271 609.659 C 441.054 611.2 442.357 612.418 443.14 613.959 C 445.694 619.012 441.922 625.055 437.564 628.531 Z " fill="rgb(69,75,105)"/><g opacity="0.1"><path d=" M 394.063 527.908 C 395.273 526.923 396.317 525.739 397.153 524.405 C 397.992 523.064 398.325 521.454 398.09 519.878 C 398.763 523.921 397.534 528.053 394.778 531.017 C 392.641 533.268 388.632 535.475 385.508 534.704 C 385.95 532.129 392.08 529.642 394.063 527.908 Z " fill="rgb(0,0,0)"/></g><g opacity="0.1"><path d=" M 340.875 484.261 C 340.353 486.168 338.932 487.676 337.095 488.272 C 335.28 488.843 333.379 489.071 331.485 488.946 L 329.782 488.946 C 307.445 488.438 284.869 483.341 263.05 488.202 C 260.42 488.759 257.841 489.542 255.337 490.54 C 252.148 491.833 249.162 493.604 246.476 495.795 L 246.476 495.672 C 247.659 489.454 250.851 487.922 256.138 485.084 C 262.235 481.793 268.605 479.068 275.172 476.94 C 287.942 472.832 301.69 471.352 314.868 474.365 C 321.023 475.784 326.956 478.131 333.119 479.506 C 335.546 480.049 337.989 480.434 340.449 480.758 C 340.926 481.856 341.074 483.076 340.875 484.261 Z " fill="rgb(0,0,0)"/></g><path d=" M 340.875 483.009 C 340.356 484.92 338.934 486.432 337.095 487.028 C 335.28 487.6 333.379 487.826 331.485 487.694 L 329.782 487.694 C 307.445 487.186 284.869 482.089 263.05 486.949 C 260.422 487.508 257.842 488.287 255.337 489.279 C 251.998 490.649 248.882 492.539 246.101 494.884 Q 245.122 492.116 244.152 489.34 C 243.368 487.133 245.854 486.643 246.331 484.664 C 246.646 483.324 246.109 481.8 245.837 480.373 C 245.767 480.023 245.722 479.669 245.701 479.313 C 245.548 476.152 246.646 474.33 249.166 472.622 C 256.64 467.543 265.757 464.058 274.287 461.439 C 278.822 459.964 283.506 459.03 288.248 458.654 C 294.956 458.251 301.656 459.53 308.185 461.15 C 316.213 463.191 324.155 465.888 331.272 470.205 C 334.762 472.298 338.168 474.926 340.049 478.656 C 340.8 479.967 341.091 481.503 340.875 483.009 Z " fill="rgb(162,101,101)"/><g opacity="0.1"><path d=" M 268.967 430.411 C 266.413 438.74 259.441 446.245 250.953 446.604 C 250.336 446.678 249.711 446.562 249.157 446.271 C 248.093 445.588 248.067 443.985 248.502 442.768 C 248.936 441.551 249.693 440.456 249.813 439.178 C 249.838 438.917 249.821 438.653 249.761 438.398 C 254.265 431.865 258.632 425.262 260.36 417.529 C 260.71 416.198 260.817 414.811 260.675 413.439 C 260.445 411.863 259.67 410.436 259.245 408.912 C 258.496 406.214 258.845 403.36 259.058 400.566 C 259.944 388.265 257.947 375.924 253.235 364.582 C 252.085 361.849 250.775 359.082 250.374 356.166 C 250.964 355.004 251.968 354.122 253.175 353.705 C 255.967 352.741 257.798 354.239 258.206 356.963 C 258.887 361.595 258.496 366.324 259.39 370.974 C 260.216 375.323 261.468 379.575 263.127 383.664 C 264.633 387.36 266.464 390.933 267.621 394.76 C 268.493 397.914 269.117 401.136 269.486 404.393 C 270.652 413.08 271.546 422.083 268.967 430.411 Z " fill="rgb(0,0,0)"/></g><g opacity="0.1"><path d=" M 340.875 483.009 C 340.356 484.92 338.934 486.432 337.095 487.028 C 335.28 487.6 333.379 487.826 331.485 487.694 L 329.782 487.694 C 322.511 482.726 313.769 480.555 305.095 481.564 C 302.32 481.905 299.545 482.571 296.77 482.308 C 291.16 481.783 286.614 477.632 281.617 474.978 C 269.984 469.069 256.03 471.017 246.348 479.9 L 245.863 480.338 C 245.793 479.988 245.747 479.634 245.726 479.278 C 245.573 476.117 246.671 474.295 249.191 472.587 C 256.665 467.508 265.783 464.022 274.313 461.404 C 278.847 459.929 283.532 458.995 288.274 458.619 C 294.982 458.216 301.681 459.495 308.211 461.115 C 316.238 463.155 324.181 465.853 331.298 470.17 C 334.762 472.298 338.168 474.926 340.049 478.656 C 340.8 479.967 341.091 481.503 340.875 483.009 Z " fill="rgb(0,0,0)"/></g><path d=" M 359.969 387.079 L 359.85 387.395 C 357.943 392.483 354.436 396.783 352.188 401.739 C 349.353 408.019 348.655 415.06 348.025 421.96 C 347.481 427.872 346.944 433.818 347.378 439.747 C 348.468 454.354 355.406 468.209 357.262 482.536 C 357.719 485.845 357.836 489.194 357.611 492.528 C 357.458 494.639 357.083 496.907 355.721 498.466 C 354.359 500.024 351.712 500.637 350.247 499.14 C 350.903 497.853 351.567 496.574 352.231 495.287 C 348.34 492.178 342.484 494.411 337.938 492.467 C 335.937 491.591 334.337 490.015 332.66 488.605 C 324.928 482.137 314.987 479.151 305.087 480.32 C 302.311 480.67 299.536 481.336 296.761 481.073 C 291.151 480.539 286.605 476.397 281.608 473.743 C 269.977 467.837 256.025 469.781 246.339 478.656 C 245.148 479.795 243.547 481.126 242.083 480.408 C 241.517 480.051 241.06 479.538 240.763 478.928 C 235.187 469.128 239.291 456.491 245.25 446.945 C 251.209 437.4 259.1 428.599 261.552 417.538 C 261.906 416.207 262.013 414.82 261.867 413.448 C 261.637 411.872 260.862 410.444 260.437 408.921 C 259.687 406.223 260.037 403.368 260.249 400.575 C 261.142 388.272 259.151 375.928 254.444 364.582 C 253.081 361.315 251.464 358.005 251.464 354.458 C 251.464 348.871 255.354 344.238 258.572 339.745 C 262.275 334.578 265.383 328.86 270.073 324.613 C 274.517 320.575 280.953 318.106 286.452 320.155 C 295.796 317.821 305.414 316.857 315.021 317.291 C 318.341 317.449 321.772 317.808 324.683 319.463 C 327.799 321.215 330.038 324.332 333.102 326.198 C 335.341 327.573 337.921 328.221 340.355 329.184 C 347.078 331.885 352.628 336.991 355.985 343.564 C 359.39 350.351 360.241 358.154 360.991 365.755 C 361.706 372.91 362.387 380.345 359.969 387.079 Z " fill="rgb(108,99,255)"/><g opacity="0.1"><path d=" M 347.378 439.747 C 348.468 454.354 355.406 468.209 357.262 482.536 C 353.55 479.304 348.383 476.055 347.693 472.298 C 346.927 468.235 344.476 462.91 344.067 458.803 C 343.658 454.696 346.459 449.678 343.522 446.858 C 342.092 445.483 345.897 445.868 344.501 444.458 C 341.36 441.314 340.585 436.472 340.389 431.979 C 340.057 424.027 341.036 415.988 339.615 408.167 C 338.763 403.342 336.984 398.744 335.563 394.059 C 333.911 388.603 332.719 383.016 331.528 377.42 C 330.355 372.445 329.501 367.395 328.974 362.305 C 328.608 357.926 328.778 353.284 330.676 349.291 C 332.575 345.298 336.414 342.057 340.721 342.119 C 355.125 342.311 352.639 362.401 355.806 371.684 C 357.075 375.379 358.786 378.953 359.475 382.806 C 359.727 384.316 359.863 385.845 359.884 387.377 C 357.977 392.465 354.47 396.765 352.222 401.722 C 349.388 408.001 348.689 415.042 348.06 421.943 C 347.481 427.872 346.944 433.818 347.378 439.747 Z " fill="rgb(0,0,0)"/></g><path d=" M 356.743 371.456 C 358.011 375.152 359.722 378.725 360.412 382.578 C 361.561 389.032 359.782 395.889 361.714 402.142 C 362.217 403.477 362.638 404.843 362.974 406.232 C 363.306 408.22 362.923 410.252 362.923 412.275 C 362.923 415.532 363.919 418.685 364.804 421.812 C 367.798 432.436 369.78 443.335 370.721 454.354 C 370.861 457.315 371.315 460.252 372.074 463.112 C 372.432 464.081 372.739 465.069 372.994 466.072 C 373.222 467.41 373.277 468.773 373.155 470.126 C 372.926 474.418 372.457 478.726 372.926 483 C 373.394 487.274 374.909 491.608 378.033 494.472 C 375.241 495.094 372.287 495.716 369.563 494.796 C 365.732 493.509 363.434 489.542 361.484 485.934 C 359.016 481.327 349.634 477.176 348.664 472.001 C 347.906 467.946 345.455 462.621 345.046 458.505 C 344.637 454.389 347.43 449.389 344.493 446.569 C 343.071 445.194 346.876 445.571 345.472 444.169 C 342.339 441.025 341.564 436.183 341.368 431.681 C 341.036 423.738 342.007 415.699 340.594 407.878 C 339.742 403.053 337.963 398.455 336.542 393.761 C 334.89 388.314 333.698 382.727 332.507 377.122 C 331.33 372.148 330.477 367.098 329.953 362.007 C 329.587 357.628 329.748 352.978 331.655 348.985 C 333.562 344.991 337.401 341.76 341.7 341.812 C 356.045 342.075 353.576 362.173 356.743 371.456 Z " fill="rgb(108,99,255)"/><g opacity="0.1"><path d=" M 315.694 374.88 C 317.039 376.5 318.767 378.278 320.801 377.963 C 320.48 378.487 319.81 378.65 319.295 378.331 C 318.806 377.998 318.415 377.535 318.162 376.991 L 315.251 371.938 C 314.868 371.281 312.229 367.454 311.582 369.661 C 311.327 370.598 315.038 374.092 315.694 374.88 Z " fill="rgb(0,0,0)"/></g><g opacity="0.1"><path d=" M 314.127 387.482 C 314.044 385.831 313.367 384.271 312.229 383.104 C 311.206 382.149 310.011 381.408 308.713 380.923 C 305.521 379.574 301.741 378.488 298.276 378.664 C 299.536 380.555 303.58 381.685 305.606 382.753 Q 309.913 385.039 314.127 387.482 Z " fill="rgb(0,0,0)"/></g><g opacity="0.1"><path d=" M 323.193 423.353 C 322.606 427.837 319.039 431.235 315.43 433.862 C 311.82 436.489 307.768 438.748 305.41 442.549 C 303.776 445.176 303.043 448.224 301.656 450.965 C 300.124 453.986 297.834 456.526 296.003 459.364 C 294.173 462.201 292.743 465.59 293.305 468.953 C 293.321 469.266 293.463 469.558 293.696 469.759 C 294.053 469.914 294.462 469.867 294.778 469.636 C 298.489 467.639 299.953 463.077 301.511 459.127 C 303.147 455.14 304.988 451.247 307.028 447.462 C 307.947 445.711 308.96 443.802 310.671 442.829 C 311.843 442.327 313.042 441.897 314.263 441.542 C 315.996 440.725 317.516 439.497 318.699 437.96 C 323.346 432.257 325.772 424.984 325.509 417.547 C 325.458 415.979 325.373 408.43 323.083 410.76 C 320.793 413.089 323.585 420.305 323.193 423.353 Z " fill="rgb(0,0,0)"/></g><path d=" M 328.803 251.383 C 336.124 254.667 342.424 261.892 342.194 270.08 C 341.998 278.68 335.001 286.78 337.41 295.021 C 338.806 299.803 343.011 303.008 346.34 306.642 C 359.016 320.444 358.99 344.536 346.272 358.311 C 341.402 363.566 335.146 367.305 329.995 372.323 C 311.837 389.926 311.063 420.375 320.784 444.012 C 313.336 445.669 305.743 446.549 298.123 446.639 C 294.556 446.639 290.189 446.017 288.895 442.593 C 287.703 439.432 289.746 435.158 287.397 432.82 C 286.29 431.725 284.63 431.576 283.14 431.322 C 273.555 429.728 265.689 421.855 262.097 412.581 C 258.504 403.307 258.691 392.868 260.752 383.112 C 262.216 376.063 264.506 368.303 261.109 361.998 C 256.853 354.064 244.611 350.718 244.798 341.646 C 244.952 334.211 253.473 330.594 258.308 325.068 C 267.23 314.892 262.982 299.102 262.965 285.388 C 262.965 273.32 267.068 260.867 275.802 252.828 C 288.793 240.769 313.812 244.683 328.803 251.383 Z " fill="rgb(162,101,101)"/><g style="opacity:0.1;"><g opacity="0.1"><path d=" M 262.505 353.004 C 258.768 346.068 248.953 342.635 246.671 335.813 C 245.53 337.405 244.888 339.318 244.833 341.295 C 244.645 350.368 256.87 353.714 261.143 361.657 C 262.546 364.469 263.137 367.635 262.846 370.782 C 264.191 364.687 265.374 358.329 262.505 353.004 Z " fill="rgb(0,0,0)"/></g><g opacity="0.1"><path d=" M 338.389 283.794 C 339.921 279.196 342.143 274.555 342.254 269.782 C 342.269 269.265 342.255 268.747 342.211 268.232 C 340.5 273.504 337.878 278.618 338.389 283.794 Z " fill="rgb(0,0,0)"/></g><g opacity="0.1"><path d=" M 263.969 308.289 C 266.898 298.769 264.37 286.964 264.361 276.403 C 264.361 275.124 264.412 273.837 264.506 272.558 C 263.497 276.64 262.988 280.835 262.99 285.046 C 263.007 292.586 264.293 300.766 263.969 308.289 Z " fill="rgb(0,0,0)"/></g><g opacity="0.1"><path d=" M 347.693 349.352 C 342.824 354.607 336.567 358.346 331.417 363.364 C 322.223 372.271 317.498 384.47 316.315 397.404 C 318.511 387.771 322.947 378.9 330.055 372.008 C 335.163 367.016 341.462 363.294 346.331 357.996 C 352.123 351.502 355.487 343.105 355.823 334.298 C 354.353 339.926 351.561 345.095 347.693 349.352 Z " fill="rgb(0,0,0)"/></g><g opacity="0.1"><path d=" M 299.545 437.654 C 295.978 437.654 291.611 437.023 290.317 433.599 C 289.125 430.446 291.168 426.173 288.819 423.826 C 287.712 422.731 286.043 422.582 284.562 422.328 C 274.985 420.743 267.119 412.861 263.527 403.596 C 260.879 396.748 260.309 389.278 260.973 381.904 C 260.905 382.193 260.845 382.482 260.786 382.78 C 258.76 392.535 258.547 402.983 262.131 412.257 C 265.715 421.531 273.589 429.404 283.166 430.989 C 284.681 431.243 286.35 431.401 287.422 432.487 C 289.797 434.834 287.729 439.108 288.921 442.26 C 290.215 445.684 294.582 446.359 298.149 446.315 C 305.769 446.225 313.361 445.344 320.81 443.688 C 319.759 441.133 318.841 438.522 318.06 435.867 C 311.947 436.985 305.754 437.583 299.545 437.654 L 299.545 437.654 Z " fill="rgb(0,0,0)"/></g></g><g opacity="0.1"><path d=" M 327.424 399.462 C 329.527 401.091 331.808 394.882 330.506 393.332 C 330.157 393.735 327.101 399.235 327.424 399.462 Z " fill="rgb(0,0,0)"/></g><g opacity="0.1"><path d=" M 336.388 511.856 C 338.866 510.98 341.496 510.104 343.114 508.002 C 344.45 506.312 345.548 499.604 342.722 502.818 C 340.321 505.577 339.189 509.211 336.388 511.856 Z " fill="rgb(0,0,0)"/></g><g opacity="0.1"><path d=" M 361.612 504.823 C 361.314 506.89 360.761 509.036 359.339 510.525 C 359.075 510.805 358.488 510.98 358.411 510.603 C 359.999 509.734 361.475 508.663 362.804 507.416 C 365.681 504.482 366.073 497.257 361.689 495.339 C 361.646 498.509 362.08 501.601 361.612 504.823 Z " fill="rgb(0,0,0)"/></g><path d=" M 391.892 491.801 C 391.892 491.801 367.733 482.037 358.999 483.044 C 358.999 483.044 368.891 498.212 368.891 498.212 L 380.025 505.936 C 380.025 505.936 386.836 503.308 387.287 503.107 C 387.738 502.906 391.892 491.801 391.892 491.801 Z " fill="rgb(69,75,105)"/><path d=" M 225.662 387.044 C 225.662 387.044 243.811 376.22 267.766 389.672 C 267.766 389.672 295.714 482.282 295.714 482.282 C 295.714 482.282 285.916 562.929 323.696 544.985 C 323.696 544.985 392.65 522.96 399.554 527.812 C 399.554 527.812 406.092 527.812 393.024 530.798 C 379.957 533.784 329.476 550.24 329.476 550.24 C 329.476 550.24 313.157 556.107 306.244 550.24 C 299.332 544.372 279.744 550.993 277.198 510.656 C 275.514 485.237 272.485 459.931 268.124 434.851 L 261.39 414.315 L 225.662 387.044 Z " fill="rgb(86,86,97)"/><path d=" M 223.482 511.768 C 223.482 511.768 231.467 429.991 218.375 400.487 C 206.984 374.775 251.03 386.799 262.522 390.302 C 264.301 390.849 265.852 391.989 266.932 393.542 C 273.742 403.395 298.174 442.882 290.972 495.716 C 290.972 495.716 288.069 542.77 306.219 550.231 L 250.298 531.7 C 245.76 530.194 241.155 528.942 236.507 527.856 C 230.582 526.472 220.928 522.54 223.482 511.768 Z " fill="rgb(255,255,255)"/><path d=" M 621.212 664.437 L 628.473 664.437 L 633.232 564.041 L 633.555 558.332 L 627.384 556.098 L 626.975 562.167 L 621.212 664.437 L 621.212 664.437 Z " fill="rgb(86,86,97)"/><g opacity="0.1"><path d=" M 626.975 562.167 L 633.232 564.041 L 633.555 558.332 L 627.384 556.098 L 626.975 562.167 L 626.975 562.167 Z " fill="rgb(0,0,0)"/></g><path d=" M 560.583 625.668 C 560.405 627.043 560.061 628.39 559.562 629.679 C 559.045 631.361 557.937 632.785 556.454 633.672 C 555.458 634.095 554.391 634.312 553.313 634.311 C 549.304 634.556 545.064 634.495 541.617 632.393 C 540.148 631.42 538.801 630.264 537.607 628.952 C 529.859 621.033 522.817 612.416 516.563 603.205 C 515.516 601.655 514.435 599.824 514.903 597.95 C 523.004 595.639 530.696 592.018 537.692 587.222 C 538.658 586.46 539.739 585.869 540.893 585.471 C 542.868 585.037 544.902 584.959 546.903 585.243 C 548.835 585.567 548.921 585.629 549.661 587.87 C 550.887 591.662 550.683 595.752 552.062 599.544 C 552.937 601.64 554.003 603.645 555.246 605.534 C 558.804 611.656 561.537 618.881 560.583 625.668 Z " fill="rgb(162,101,101)"/><g opacity="0.1"><path d=" M 560.583 625.668 C 560.405 627.043 560.061 628.39 559.562 629.679 C 559.045 631.361 557.937 632.785 556.454 633.672 C 555.458 634.095 554.391 634.312 553.313 634.311 C 549.304 634.556 545.064 634.495 541.617 632.393 C 540.148 631.42 538.801 630.264 537.607 628.952 C 529.859 621.033 522.817 612.416 516.563 603.205 C 515.516 601.655 514.435 599.824 514.903 597.95 C 517.546 597.197 520.149 596.302 522.701 595.27 L 522.829 595.367 C 525.442 597.285 527.34 600.035 529.188 602.732 L 535.147 611.358 C 536.209 613.052 537.464 614.61 538.884 615.999 C 540.645 617.453 542.589 618.655 544.664 619.572 C 547.465 620.965 550.266 622.357 553.177 623.478 C 555.058 624.258 558.242 624.564 560.583 625.668 Z " fill="rgb(0,0,0)"/></g><path d=" M 566.083 532.147 C 565.496 533.602 564.784 535 563.954 536.324 C 556.042 549.992 549.938 564.686 545.805 580.015 C 544.63 579.744 543.966 581.39 543.975 582.642 C 543.983 583.895 543.975 585.471 542.851 585.926 C 542.519 586.058 542.144 586.058 541.821 586.207 C 541.106 586.539 540.901 587.476 540.799 588.282 L 539.795 595.866 C 539.446 598.493 539.139 601.339 540.391 603.66 C 541.254 605.039 542.374 606.23 543.685 607.163 L 560.302 620.65 C 560.983 621.201 561.826 621.788 562.643 621.482 C 564.508 620.781 562.856 617.348 564.346 615.956 C 565.333 615.001 566.9 615.719 568.27 615.605 C 570.058 615.465 571.412 613.775 571.863 611.997 C 572.179 610.187 572.211 608.336 571.956 606.515 C 571.844 605.684 571.938 604.838 572.229 604.054 C 572.737 603.224 573.435 602.535 574.263 602.049 C 580.118 597.65 583.47 590.551 583.21 583.098 C 583.075 581.98 583.115 580.848 583.33 579.744 C 583.676 578.733 584.198 577.795 584.87 576.976 C 590.906 568.578 595.937 559.461 600.934 550.362 C 603.812 545.108 606.74 539.774 607.744 533.854 C 607.921 533.408 607.883 532.902 607.642 532.488 C 607.401 532.075 606.985 531.803 606.519 531.753 C 604.026 530.952 601.483 530.326 598.908 529.879 C 591.085 528.25 583.534 525.736 575.923 523.319 C 568.313 520.902 568.372 525.824 566.083 532.147 Z " fill="rgb(69,75,105)"/><path d=" M 530.099 685.674 L 542.085 687.162 L 597.257 558.332 L 612.137 557.211 L 638.28 565.057 L 643.354 718.444 L 655.331 718.444 L 650.615 559.452 L 679.295 560.206 L 730.474 691.27 L 741.362 691.27 L 687.536 538.093 L 685.467 532.191 L 605.242 529.362 L 585.245 540.895 L 584.99 541.561 L 530.099 685.674 L 530.099 685.674 Z " fill="rgb(86,86,97)"/><g opacity="0.1"><path d=" M 584.99 541.561 C 602.228 546.903 620.122 552.736 620.122 552.736 C 620.122 552.736 636.441 558.594 643.354 552.736 C 644.225 552.036 645.199 551.483 646.24 551.098 C 645.343 551.757 644.374 552.307 643.354 552.736 L 687.536 538.084 L 685.492 532.191 L 605.267 529.362 L 585.27 540.895 L 584.99 541.561 Z " fill="rgb(0,0,0)"/></g><path d=" M 666.585 516.138 L 633.922 508.668 C 633.922 508.668 555.876 523.608 550.07 529.581 C 550.07 529.581 612.503 542.647 619.399 547.096 C 626.294 551.545 667.317 556.466 666.585 516.138 Z " fill="rgb(255,255,255)"/><path d=" M 545.379 636.185 C 543.413 640.039 538.569 641.125 534.312 641.186 C 528.403 641.261 522.533 640.182 517.014 638.007 C 513.865 636.763 510.843 635.161 507.591 634.25 C 502.747 632.884 497.375 632.998 493.119 630.257 C 490.861 628.708 488.996 626.628 487.679 624.188 C 487.432 623.758 487.194 623.312 486.972 622.856 C 484.938 618.784 483.993 614.046 485.125 609.65 C 486.257 605.254 490.369 600.411 495.136 600.481 C 500.797 600.569 507.548 603.327 513.013 604.755 C 519.824 606.506 526.634 608.529 532.652 612.234 C 537.692 615.351 542.144 619.826 544.519 625.291 C 544.976 626.345 545.352 627.434 545.643 628.549 C 546.384 631.071 546.554 633.882 545.379 636.185 Z " fill="rgb(162,101,101)"/><g opacity="0.1"><path d=" M 545.379 636.185 C 543.413 640.039 538.569 641.125 534.312 641.186 C 528.403 641.261 522.533 640.182 517.014 638.007 C 513.865 636.763 510.843 635.161 507.591 634.25 C 502.747 632.884 497.375 632.998 493.119 630.257 C 490.861 628.708 488.996 626.628 487.679 624.188 C 487.432 623.758 487.194 623.312 486.972 622.856 C 487.824 622.927 488.607 623.014 489.033 623.058 C 494.259 623.575 499.248 625.536 504.237 627.016 C 511.162 629.074 518.313 630.222 525.519 630.432 C 530.626 630.581 535.955 630.195 540.416 627.629 C 541.748 626.765 543.13 625.984 544.553 625.291 C 545.01 626.345 545.386 627.434 545.677 628.549 C 546.384 631.071 546.554 633.882 545.379 636.185 Z " fill="rgb(0,0,0)"/></g><path d=" M 581.959 469.671 C 570.892 467.806 559.621 467.35 548.401 466.895 L 534.679 466.334 C 533.703 466.218 532.714 466.341 531.793 466.693 C 530.999 467.218 530.245 467.804 529.537 468.445 C 528.158 469.408 526.396 469.513 524.736 469.61 C 512.96 470.277 501.248 471.84 489.697 474.286 C 483.738 475.539 477.549 477.176 473.071 481.406 C 468.338 485.881 466.261 492.703 466.099 499.306 C 465.937 505.909 467.623 512.399 469.402 518.739 C 471.667 526.372 472.918 534.284 473.122 542.262 C 473.042 544.475 473.125 546.691 473.369 548.891 C 473.765 550.991 474.367 553.045 475.165 555.021 L 481.431 572.23 C 481.984 573.736 482.529 575.233 483.133 576.705 C 483.738 578.176 484.316 579.332 484.836 580.716 C 485.602 582.607 486.206 584.569 486.811 586.522 L 490.982 600 L 491.527 601.751 C 493.034 606.603 494.574 611.542 497.418 615.71 C 500.261 619.879 504.662 623.242 509.608 623.496 C 511.204 623.434 512.802 623.478 514.392 623.627 C 515.748 623.968 517.064 624.458 518.317 625.09 C 522.031 626.677 526.017 627.478 530.039 627.445 C 533.742 627.445 537.854 626.386 539.863 623.181 C 540.97 621.429 541.259 619.275 541.565 617.208 C 542.102 613.057 542.621 608.722 541.25 604.781 C 540.399 602.425 538.969 600.402 537.982 598.082 C 536.602 594.92 536.151 591.426 535.257 588.089 C 533.323 580.908 529.387 574.466 523.935 569.559 C 521.999 561.672 520.577 553.662 519.679 545.581 C 519.554 543.791 519.208 542.026 518.649 540.326 C 517.653 537.699 515.635 535.571 514.792 532.891 C 514.001 530.404 514.239 527.532 512.8 525.386 C 524.778 528.775 536.637 528.013 549.074 527.812 C 553.057 527.825 557.036 527.591 560.992 527.111 C 562.836 526.763 564.702 526.558 566.576 526.498 C 570.424 526.498 574.034 528.25 577.566 529.791 C 587.552 534.17 598.074 537.611 608.919 538.084 C 620.114 538.566 631.18 535.86 642.119 533.18 C 646.929 531.998 651.926 530.719 655.74 527.47 C 659.554 524.221 661.699 518.362 659.349 513.905 C 657.562 510.551 653.859 508.904 650.402 507.503 C 640.834 503.615 631.214 499.823 621.995 495.12 C 607.915 488.062 597.384 472.298 581.959 469.671 Z " fill="rgb(69,75,105)"/><path d=" M 562.226 430.052 C 560.89 433.03 558.642 435.464 556.982 438.267 C 554.205 442.88 553.289 448.426 554.428 453.724 C 555.641 459.031 559.179 463.46 564.005 465.713 C 566.131 466.584 568.367 467.138 570.645 467.359 C 573.642 467.736 576.834 467.814 579.482 466.326 C 581.463 465.102 583.089 463.354 584.189 461.264 C 586.479 457.323 587.782 452.883 588.974 448.46 C 591.178 440.299 593.06 431.926 592.787 423.458 C 592.694 420.542 592.132 417.258 589.782 415.576 C 588.57 414.856 587.224 414.402 585.832 414.245 L 574.604 412.178 C 572.433 411.775 568.645 410.138 566.764 411.749 C 564.882 413.361 564.737 418.125 564.414 420.358 C 563.903 423.659 563.588 427.013 562.226 430.052 Z " fill="rgb(161,97,106)"/><path d=" M 698.713 396.178 L 695.776 421.505 C 695.168 426.022 694.818 430.572 694.729 435.132 C 694.729 437.671 694.806 440.491 693.171 442.392 C 692.372 443.256 691.36 443.883 690.243 444.204 C 686.676 445.343 682.785 444.327 679.38 442.759 C 677.388 441.884 675.354 440.614 674.451 438.573 C 673.927 437.159 673.709 435.643 673.813 434.133 C 673.813 419.027 675.2 403.272 682.87 390.399 C 683.525 389.135 684.447 388.04 685.569 387.193 C 687.697 385.792 690.481 386.186 692.89 386.948 C 694.371 387.412 698.372 387.929 699.317 389.286 C 700.262 390.644 698.917 394.436 698.713 396.178 Z " fill="rgb(161,97,106)"/><ellipse vector-effect="non-scaling-stroke" cx="620.7946819053934" cy="273.0661107397145" rx="30.64631257431381" ry="31.526846867940492" fill="rgb(161,97,106)"/><path d=" M 612.597 320.05 C 612.486 322.503 611.837 324.898 610.698 327.056 Q 634.168 323.378 657.519 318.859 C 652.354 316.128 648.449 311.405 646.657 305.723 C 645.81 302.676 645.347 299.529 645.278 296.361 C 645.031 291.336 645.125 286.3 645.559 281.289 C 640.11 281.876 634.952 283.978 629.759 285.782 C 624.538 287.597 619.227 289.126 613.848 290.362 C 611.252 290.958 608.638 291.466 606.016 291.938 C 602.952 292.499 601.479 292.49 603.607 295.258 C 609.319 302.649 613.397 310.163 612.597 320.05 Z " fill="rgb(161,97,106)"/><path d=" M 622.012 315.838 C 617.968 316.459 613.729 317.16 610.503 319.735 C 609.275 320.82 608.107 321.975 607.004 323.194 C 600.594 329.595 591.544 332.17 583.764 336.689 C 582.495 337.334 581.37 338.244 580.461 339.36 C 579.609 340.577 579.175 342.127 578.281 343.336 C 577.243 344.737 575.6 345.613 574.791 347.163 C 573.982 348.713 574.161 350.359 574.076 352.006 C 573.88 355.623 572.552 359.056 571.522 362.515 C 566.798 379.075 569.385 397.545 562.235 413.185 C 562.899 415.006 564.259 416.468 565.997 417.231 C 567.797 417.898 569.675 418.314 571.582 418.466 L 587.424 420.489 C 589.689 420.778 592.089 421.05 594.158 420.078 C 592.266 425.444 590.927 431.001 590.165 436.655 C 589.78 440.112 589.183 443.54 588.378 446.919 C 586.198 454.626 580.716 461.045 574.221 465.432 C 573.403 465.873 572.713 466.529 572.22 467.333 C 571.369 469.084 572.629 471.046 573.523 472.762 C 576.119 477.737 575.762 483.709 575.728 489.349 C 575.694 494.989 576.247 501.18 580.078 505.226 C 582.342 507.617 585.441 508.913 588.454 510.148 L 613.235 520.333 C 617.325 522.124 621.543 523.588 625.851 524.712 C 632.381 526.244 639.165 526.183 645.865 525.885 Q 652.505 525.596 659.128 525.009 C 660.885 525.003 662.61 524.536 664.142 523.652 C 665.461 522.582 666.475 521.166 667.079 519.554 C 670.527 511.838 671.685 502.836 677.031 496.373 C 680.7 491.932 686.395 488.386 686.812 482.58 C 687.008 479.69 685.756 476.878 685.739 473.98 C 685.739 470.415 687.553 467.026 687.442 463.471 C 687.212 457.682 681.909 453.268 681.066 447.541 C 678.921 433.021 686.088 418.519 690.49 404.551 C 691.281 402.055 692.303 399.296 694.635 398.228 C 696.968 397.159 700.254 397.72 701.088 395.355 C 703.191 389.418 703.693 382.456 703.421 376.141 C 703.267 372.49 702.007 368.916 702.152 365.256 C 702.254 362.681 703.054 360.177 703.267 357.611 C 703.591 353.731 702.595 349.878 701.565 346.13 C 701.267 344.791 700.822 343.493 700.237 342.259 C 699.608 341.14 698.866 340.092 698.023 339.132 L 693.878 334.062 C 691.937 331.689 689.885 329.228 687.067 328.028 C 686.156 325.707 683.245 324.105 681.159 322.826 C 679.057 321.599 676.885 320.502 674.656 319.542 L 651.211 308.893 C 650.335 308.439 649.396 308.126 648.427 307.965 C 647 307.915 645.582 308.215 644.29 308.84 C 637.139 311.757 629.674 314.664 622.012 315.838 Z " fill="rgb(108,99,255)"/><path d=" M 597.18 278.548 C 596.278 275.282 593.971 272.462 593.622 269.081 C 593.307 266.078 594.592 263.17 595.324 260.245 C 596.056 257.32 596.031 253.747 593.775 251.803 C 593.4 251.47 592.924 251.172 592.787 250.682 C 592.515 249.806 593.375 249.009 593.639 248.125 C 594.124 246.373 592.021 244.438 592.787 242.757 C 593.222 241.837 594.311 241.513 595.265 241.224 C 598.908 240.112 602.603 237.642 603.394 233.815 C 606.246 235.041 609.285 232.738 611.473 230.505 C 613.661 228.272 616.351 225.723 619.365 226.398 L 618.692 227.808 C 623.339 226.072 628.421 226.013 633.104 227.641 L 631.674 227.641 C 635.782 227.713 639.766 229.099 643.073 231.608 C 642.707 231.608 642.673 232.169 642.817 232.484 C 644.009 235.348 647.074 236.863 650.028 237.572 C 651.807 238.01 653.739 238.325 655.042 239.639 C 656.344 240.953 656.37 243.694 654.65 244.324 C 658.157 245.729 661.478 247.582 664.534 249.841 C 665.385 250.481 666.347 251.348 666.236 252.469 C 666.115 253.031 665.938 253.58 665.709 254.106 C 665.539 255.041 665.6 256.005 665.887 256.909 L 666.832 260.92 C 667.871 265.377 668.688 270.745 665.53 273.977 C 667.957 278.643 667.123 284.394 663.478 288.129 C 663.985 289.712 663.809 291.441 662.996 292.882 C 662.183 294.323 660.809 295.337 659.222 295.669 C 660.269 297.351 659.307 299.75 657.655 300.801 C 656.004 301.852 653.927 301.861 652.003 301.677 C 650.079 301.493 648.129 301.046 646.206 301.344 C 643.405 301.791 640.664 303.752 637.965 302.876 C 636.959 302.434 635.994 301.901 635.079 301.283 C 633.189 300.241 630.993 300.004 628.899 299.531 C 625.329 298.742 621.939 297.255 618.913 295.152 C 616.908 293.912 615.309 292.082 614.325 289.898 C 612.452 285.029 615.602 278.645 612.29 274.677 C 610.349 272.366 606.502 272.33 604.331 274.31 C 603.25 275.299 603.105 277.384 601.981 278.128 C 600.414 278.536 598.792 278.678 597.18 278.548 L 597.18 278.548 Z " fill="rgb(70,67,83)"/><g opacity="0.1"><path d=" M 555.535 529.66 C 554.325 528.675 553.281 527.491 552.445 526.157 C 551.606 524.816 551.273 523.205 551.508 521.629 C 550.835 525.672 552.064 529.804 554.82 532.769 C 556.957 535.019 560.966 537.226 564.09 536.455 C 563.648 533.881 557.519 531.394 555.535 529.66 Z " fill="rgb(0,0,0)"/></g><path d=" M 723.937 388.796 C 723.937 388.796 705.787 377.972 681.832 391.423 C 681.832 391.423 653.884 484.033 653.884 484.033 C 653.884 484.033 663.682 564.681 625.902 546.737 C 625.902 546.737 556.948 524.712 550.044 529.563 C 550.044 529.563 543.506 529.563 556.574 532.55 C 569.641 535.536 620.122 551.991 620.122 551.991 C 620.122 551.991 636.441 557.859 643.354 551.991 C 650.266 546.124 669.854 552.744 672.4 512.407 C 674.084 486.988 677.114 461.683 681.474 436.603 L 688.208 416.067 L 723.937 388.796 Z " fill="rgb(86,86,97)"/><path d=" M 726.116 513.52 C 726.116 513.52 718.131 431.742 731.224 402.239 C 742.614 376.527 698.568 388.551 687.076 392.054 C 685.297 392.601 683.746 393.741 682.666 395.294 C 675.856 405.146 651.424 444.633 658.626 497.467 C 658.626 497.467 661.529 544.521 643.379 551.982 L 699.3 533.452 C 703.838 531.945 708.443 530.693 713.091 529.607 C 719.016 528.223 728.67 524.291 726.116 513.52 Z " fill="rgb(255,255,255)"/><g opacity="0.1"><ellipse vector-effect="non-scaling-stroke" cx="872.7158841308566" cy="658.8321119988199" rx="82.94935270114274" ry="13.705420930090781" fill="rgb(108,99,255)"/></g><rect x="870.043" y="396.275" width="5.338" height="123.629" transform="matrix(1,0,0,1,0,0)" fill="rgb(83,84,97)"/><path d=" M 908.93 519.527 L 908.598 525.097 L 908.121 532.979 L 907.925 536.254 L 907.457 544.136 L 907.253 547.411 L 906.776 555.293 L 901.396 644.68 C 900.885 652.642 894.459 658.831 886.703 658.832 L 858.721 658.832 C 850.949 658.829 844.521 652.607 844.045 644.628 L 838.647 555.231 L 838.179 547.35 L 837.983 544.074 L 837.498 536.193 L 837.302 532.917 L 836.834 525.036 L 836.494 519.466 C 836.375 517.308 837.122 515.195 838.561 513.621 C 839.999 512.046 842.004 511.149 844.104 511.138 L 901.328 511.138 C 903.438 511.15 905.449 512.057 906.888 513.645 C 908.327 515.233 909.066 517.361 908.93 519.527 L 908.93 519.527 Z " fill="rgb(86,86,97)"/><path d=" M 908.598 525.097 L 908.121 532.952 L 837.311 532.952 L 836.834 525.097 L 908.598 525.097 L 908.598 525.097 Z " fill="rgb(157,156,181)"/><path d=" M 907.925 536.236 L 907.457 544.101 L 837.983 544.101 L 837.507 536.236 L 907.925 536.236 L 907.925 536.236 Z " fill="rgb(157,156,181)"/><path d=" M 907.253 547.376 L 906.776 555.231 L 838.656 555.231 L 838.179 547.376 L 907.253 547.376 L 907.253 547.376 Z " fill="rgb(157,156,181)"/><path d=" M 828.679 442.61 C 859.768 465.748 872.716 501.934 872.716 501.934 C 872.716 501.934 835.259 500.611 804.162 477.474 C 773.064 454.337 760.133 418.16 760.133 418.16 C 760.133 418.16 797.598 419.482 828.679 442.61 Z " fill="rgb(108,99,255)"/><mask id="_mask_VtOPrZwmLrE7Lsr3gsIE4fuBjMHQm3i2" x="-200%" y="-200%" width="400%" height="400%"><rect x="-200%" y="-200%" width="400%" height="400%" style="fill:white;"/><path d=" M 760.133 418.16 C 760.133 418.16 799.012 440.36 811.491 458.742 C 811.491 458.742 872.716 501.934 872.716 501.934" fill="black" stroke="none"/></mask><path d=" M 760.133 418.16 C 760.133 418.16 799.012 440.36 811.491 458.742 C 811.491 458.742 872.716 501.934 872.716 501.934" fill="none" mask="url(#_mask_VtOPrZwmLrE7Lsr3gsIE4fuBjMHQm3i2)" vector-effect="non-scaling-stroke" stroke-width="3.625" stroke="rgb(83,84,97)" stroke-linejoin="miter" stroke-linecap="butt" stroke-miterlimit="10"/><path d=" M 760.133 418.16 C 760.133 418.16 799.012 440.36 811.491 458.742 C 811.491 458.742 872.716 501.934 872.716 501.934" fill="none"/><path d=" M 848.744 396.003 C 865.667 408.588 872.716 428.292 872.716 428.292 C 872.716 428.292 852.285 427.565 835.404 414.981 C 818.523 402.396 811.483 382.692 811.483 382.692 C 811.483 382.692 831.829 383.41 848.744 396.003 Z " fill="rgb(108,99,255)"/><mask id="_mask_mCt3hRgaVznHuGqNIh4A7tCyWMVs17d1" x="-200%" y="-200%" width="400%" height="400%"><rect x="-200%" y="-200%" width="400%" height="400%" style="fill:white;"/><path d=" M 811.483 382.692 C 811.483 382.692 832.646 394.777 839.431 404.778 C 839.431 404.778 872.758 428.292 872.758 428.292" fill="black" stroke="none"/></mask><path d=" M 811.483 382.692 C 811.483 382.692 832.646 394.777 839.431 404.778 C 839.431 404.778 872.758 428.292 872.758 428.292" fill="none" mask="url(#_mask_mCt3hRgaVznHuGqNIh4A7tCyWMVs17d1)" vector-effect="non-scaling-stroke" stroke-width="3.625" stroke="rgb(83,84,97)" stroke-linejoin="miter" stroke-linecap="butt" stroke-miterlimit="10"/><path d=" M 811.483 382.692 C 811.483 382.692 832.646 394.777 839.431 404.778 C 839.431 404.778 872.758 428.292 872.758 428.292" fill="none"/><path d=" M 897.301 427.285 C 877.866 449.257 873.754 477.973 873.754 477.973 C 873.754 477.973 901.157 471.055 920.575 449.073 C 939.993 427.092 944.122 398.385 944.122 398.385 C 944.122 398.385 916.736 405.312 897.301 427.285 Z " fill="rgb(108,99,255)"/><mask id="_mask_fE1SohbRSYsn2fXahb3bORak0QW4x9XS" x="-200%" y="-200%" width="400%" height="400%"><rect x="-200%" y="-200%" width="400%" height="400%" style="fill:white;"/><path d=" M 944.139 398.394 C 944.139 398.394 918.822 420.918 912.386 436.436 C 912.386 436.436 873.754 477.973 873.754 477.973" fill="black" stroke="none"/></mask><path d=" M 944.139 398.394 C 944.139 398.394 918.822 420.918 912.386 436.436 C 912.386 436.436 873.754 477.973 873.754 477.973" fill="none" mask="url(#_mask_fE1SohbRSYsn2fXahb3bORak0QW4x9XS)" vector-effect="non-scaling-stroke" stroke-width="3.625" stroke="rgb(83,84,97)" stroke-linejoin="miter" stroke-linecap="butt" stroke-miterlimit="10"/><path d=" M 944.139 398.394 C 944.139 398.394 918.822 420.918 912.386 436.436 C 912.386 436.436 873.754 477.973 873.754 477.973" fill="none"/><path d=" M 504.117 374.39 L 504.117 376.387 L 446.562 376.387 L 446.562 374.766 C 448.14 374.158 449.634 373.339 451.006 372.332 C 455.964 368.679 458.906 362.79 458.906 356.516 C 458.907 354.9 458.709 353.291 458.318 351.726 C 456.908 346.021 453.065 341.279 447.864 338.826 L 503.726 338.826 C 498.525 341.279 494.682 346.021 493.272 351.726 C 492.884 353.291 492.689 354.9 492.693 356.516 C 492.689 362.789 495.628 368.678 500.585 372.332 C 501.689 373.143 502.873 373.832 504.117 374.39 Z " fill="rgb(223,230,245)"/><g opacity="0.1"><path d=" M 503.726 338.826 C 498.525 341.279 494.682 346.021 493.272 351.726 L 458.318 351.726 C 456.908 346.021 453.065 341.279 447.864 338.826 L 503.726 338.826 Z " fill="rgb(0,0,0)"/></g><path d=" M 380.664 328.623 L 380.664 339.868 C 380.664 346.068 385.073 351.104 390.522 351.104 L 559.851 351.104 C 565.299 351.104 569.717 346.068 569.717 339.868 L 569.717 328.623 L 380.664 328.623 Z " fill="rgb(223,230,245)"/><g opacity="0.1"><path d=" M 504.117 374.39 L 504.117 376.387 L 446.562 376.387 L 446.562 374.766 C 448.14 374.158 449.634 373.339 451.006 372.332 L 500.585 372.332 C 501.689 373.143 502.873 373.832 504.117 374.39 Z " fill="rgb(0,0,0)"/></g><path d="M 430.471 372.954 L 520.208 372.954 C 521.824 372.954 523.135 374.265 523.135 375.881 L 523.135 375.955 C 523.135 377.571 521.824 378.882 520.208 378.882 L 430.471 378.882 C 428.856 378.882 427.544 377.571 427.544 375.955 L 427.544 375.881 C 427.544 374.265 428.856 372.954 430.471 372.954 Z" style="stroke:none;fill:#DFE6F5;stroke-miterlimit:10;"/><path d=" M 569.717 205.467 C 569.717 202.776 568.678 200.195 566.827 198.293 C 564.977 196.391 562.467 195.324 559.851 195.326 L 390.522 195.326 C 387.907 195.324 385.398 196.392 383.549 198.294 C 381.699 200.196 380.662 202.777 380.664 205.467 L 380.664 330.813 L 569.717 330.813 L 569.717 205.467 Z " fill="rgb(71,65,87)"/><path d=" M 564.559 209.995 L 564.559 317.712 C 564.561 319.037 564.051 320.309 563.14 321.247 C 562.23 322.185 560.995 322.712 559.706 322.712 L 390.675 322.712 C 389.387 322.712 388.151 322.185 387.241 321.247 C 386.331 320.309 385.82 319.037 385.823 317.712 L 385.823 209.995 C 385.818 209.119 386.042 208.257 386.47 207.499 C 387.337 205.954 388.94 205.002 390.675 205.003 L 559.706 205.003 C 560.993 205.003 562.227 205.529 563.137 206.465 C 564.047 207.401 564.559 208.671 564.559 209.995 Z " fill="rgb(76,76,120)"/><ellipse vector-effect="non-scaling-stroke" cx="475.1906457189864" cy="200.160277357602" rx="2.272934849261617" ry="2.3382411427055843" fill="rgb(255,255,255)"/><ellipse vector-effect="non-scaling-stroke" cx="475.1906457189867" cy="340.33214151545076" rx="5.609977774020251" ry="5.771164468325765" fill="rgb(255,255,255)"/><path d=" M 564.559 209.995 L 385.84 209.995 C 385.84 207.238 388.012 205.003 390.692 205.003 L 559.706 205.003 C 560.993 205.003 562.227 205.529 563.137 206.465 C 564.047 207.401 564.559 208.671 564.559 209.995 Z " fill="rgb(200,202,215)"/><ellipse vector-effect="non-scaling-stroke" cx="390.6749259307124" cy="207.49902671186146" rx="1.2173396383685713" ry="1.252316417254292" fill="rgb(237,237,244)"/><ellipse vector-effect="non-scaling-stroke" cx="394.31843198121413" cy="207.49902671186146" rx="1.2173396383685713" ry="1.252316417254292" fill="rgb(237,237,244)"/><ellipse vector-effect="non-scaling-stroke" cx="397.9619380317158" cy="207.49902671186146" rx="1.2173396383685713" ry="1.252316417254292" fill="rgb(237,237,244)"/></g><g><rect x="420.075" y="205.105" width="173.925" height="118.168" transform="matrix(1,0,0,1,0,0)" fill="rgb(230,230,230)"/><rect x="425.617" y="219.926" width="163.979" height="96.356" transform="matrix(1,0,0,1,0,0)" fill="rgb(255,255,255)"/><rect x="420" y="205" width="173.925" height="7.839" transform="matrix(1,0,0,1,0,0)" fill="rgb(108,99,255)"/><ellipse vector-effect="non-scaling-stroke" cx="425.4911646040582" cy="209.00756043828935" rx="1.3695904621930026" ry="1.4529330254019612" fill="rgb(255,255,255)"/><ellipse vector-effect="non-scaling-stroke" cx="430.68935062619255" cy="209.00756043828935" rx="1.3695904621930026" ry="1.4529330254019612" fill="rgb(255,255,255)"/><ellipse vector-effect="non-scaling-stroke" cx="435.88753664832706" cy="209.00756043828935" rx="1.3695904621930026" ry="1.4529330254019612" fill="rgb(255,255,255)"/><path d=" M 454.305 233.431 L 443.459 244.794 L 454.305 256.157 L 456.746 253.568 L 448.544 244.866 L 456.814 236.092 L 454.305 233.431 Z " fill="rgb(108,99,255)"/><path d=" M 463.193 233.431 L 474.039 244.794 L 463.193 256.157 L 460.752 253.568 L 468.955 244.866 L 460.684 236.092 L 463.193 233.431 Z " fill="rgb(108,99,255)"/><path d=" M 498.277 236.283 C 497.39 236.283 496.671 236.824 496.671 237.492 C 496.671 238.159 497.39 238.7 498.277 238.7 L 573.999 238.7 C 574.887 238.7 575.606 238.159 575.606 237.492 C 575.606 236.824 574.887 236.283 573.999 236.283 L 498.277 236.283 Z " fill="rgb(230,230,230)"/><path d=" M 573.247 302.511 L 445.862 302.511 C 444.56 302.511 443.505 301.713 443.503 300.731 L 443.503 276.88 C 443.505 275.897 444.56 275.099 445.862 275.099 L 573.247 275.099 C 574.549 275.099 575.604 275.897 575.605 276.88 L 575.605 300.73 C 575.604 301.713 574.549 302.51 573.247 302.511 Z  M 445.862 275.811 C 445.081 275.811 444.448 276.289 444.447 276.879 L 444.447 300.73 C 444.447 301.319 445.081 301.797 445.862 301.798 L 573.247 301.798 C 574.028 301.798 574.661 301.319 574.662 300.73 L 574.662 276.88 C 574.662 276.29 574.028 275.812 573.247 275.811 L 445.862 275.811 Z " fill="rgb(230,230,230)"/><ellipse vector-effect="non-scaling-stroke" cx="458.979998055002" cy="288.7948570070606" rx="5.69908920051904" ry="6.0458911935521655" fill="rgb(230,230,230)"/><path d=" M 475.054 283.96 C 474.425 283.959 473.914 284.499 473.913 285.167 C 473.912 285.834 474.422 286.376 475.051 286.377 L 528.774 286.377 C 529.403 286.377 529.913 285.836 529.913 285.168 C 529.913 284.501 529.403 283.96 528.774 283.96 L 475.054 283.96 Z " fill="rgb(108,99,255)"/><path d=" M 475.054 291.213 C 474.425 291.212 473.914 291.752 473.913 292.42 C 473.912 293.088 474.422 293.63 475.051 293.63 L 498.169 293.63 C 498.799 293.631 499.309 293.091 499.31 292.423 C 499.311 291.756 498.802 291.214 498.172 291.213 L 475.054 291.213 Z " fill="rgb(108,99,255)"/><path d=" M 497.724 243.525 C 497.13 243.576 496.673 244.102 496.673 244.734 C 496.673 245.366 497.13 245.892 497.724 245.943 L 547.351 245.943 C 547.944 245.892 548.402 245.366 548.402 244.734 C 548.402 244.102 547.944 243.576 547.351 243.525 L 497.724 243.525 Z " fill="rgb(230,230,230)"/><path d=" M 498.05 250.767 C 497.288 250.767 496.671 251.308 496.671 251.976 C 496.671 252.643 497.288 253.185 498.05 253.185 L 563.102 253.185 C 563.864 253.185 564.482 252.643 564.482 251.976 C 564.482 251.308 563.864 250.767 563.102 250.767 L 498.05 250.767 Z " fill="rgb(230,230,230)"/></g></g></svg>